<svg width="1000" height="1000" viewBox="0 0 1000 1000" fill="none" xmlns="http://www.w3.org/2000/svg">
<g clip-path="url(#clip0_1_2)">
<path d="M875 0H125C56.25 0 0 56.25 0 125V285.75C0 285.75 160.583 379.083 170.75 384.917C183.667 392.417 199.667 392.292 212.583 384.917C223.417 378.792 546.75 192.917 551.583 190.125C563.208 183.417 575.75 185.667 582.75 189.708C589.583 193.75 608 204.208 617.75 209.708C627.417 215.292 626.958 230.625 618.292 235.625L213.625 468.542C199.208 476.875 184.875 477.042 169.958 468.625C144.917 454.458 41.5833 394.292 0 370.083V454.25L170.75 553.417C183.667 560.917 199.667 560.792 212.583 553.417C223.417 547.292 546.75 361.375 551.583 358.583C563.208 351.917 575.75 354.167 582.75 358.25C589.583 362.25 608 372.708 617.75 378.25C627.417 383.792 626.958 399.083 618.292 404.083C609.625 409.125 231.292 626.833 213.625 637C199.208 645.333 184.875 645.542 169.958 637.083C144.917 622.958 41.5833 562.75 0 538.583V622.75L170.75 721.917C183.667 729.417 199.667 729.292 212.583 721.917C223.417 715.792 546.75 529.875 551.583 527.083C563.208 520.417 575.75 522.667 582.75 526.708C589.583 530.75 608 541.208 617.75 546.708C627.417 552.25 626.958 567.625 618.292 572.625L213.625 805.542C199.208 813.833 184.875 814.042 169.958 805.583C144.917 791.417 41.5833 731.25 0 707.083V875C0 943.75 56.25 1000 125 1000H875C943.75 1000 1000 943.75 1000 875V125C1000 56.25 943.75 0 875 0Z" fill="#84A1BE" stroke="#84A1BE" stroke-width="8.20833"/>
</g>
<defs>
<clipPath id="clip0_1_2">
<rect width="1000" height="1000" fill="white"/>
</clipPath>
</defs>
</svg>
